<?xml version="1.0" encoding="UTF-8" standalone="no"?>
<svg
   width="60pt"
   height="102.959999pt"
   viewBox="0 0 60 102.959999"
   version="1.1"
   id="svg4"
   xmlns="http://www.w3.org/2000/svg"
   xmlns:svg="http://www.w3.org/2000/svg">
  <defs
     id="defs8" />
  <path
     fill-rule="nonzero"
     fill="rgb(0%, 0%, 0%)"
     fill-opacity="1"
     d="M 15.527344 81.171875 C 15.527344 83.324219 15.894531 85.101563 16.636719 86.507813 L 15.910156 86.878906 L 15.957031 86.074219 C 17.613281 86.171875 20.089844 86.230469 23.386719 86.230469 C 26.683594 86.230469 29.09375 86.195313 30.613281 86.121094 L 30.648438 86.9375 L 29.855469 86.738281 C 30.359375 84.695313 30.613281 82.4375 30.613281 79.957031 C 30.613281 77.617188 29.890625 75.59375 28.453125 73.894531 C 27.050781 72.238281 25.25 71.410156 23.039063 71.410156 C 20.84375 71.410156 19.054688 72.242188 17.664063 73.910156 C 16.238281 75.628906 15.527344 78.050781 15.527344 81.171875 Z M 13.894531 81.171875 C 13.894531 77.664063 14.726563 74.894531 16.40625 72.878906 C 18.117188 70.816406 20.328125 69.785156 23.039063 69.785156 C 25.753906 69.785156 27.96875 70.808594 29.703125 72.851563 C 31.402344 74.851563 32.246094 77.214844 32.246094 79.957031 C 32.246094 82.566406 31.980469 84.953125 31.4375 87.128906 L 31.296875 87.714844 L 30.683594 87.746094 C 29.136719 87.816406 26.703125 87.851563 23.386719 87.851563 C 20.054688 87.851563 17.550781 87.792969 15.859375 87.695313 L 15.398438 87.664063 L 15.1875 87.257813 C 14.324219 85.617188 13.894531 83.59375 13.894531 81.171875 Z M 47.820313 92.878906 L 30.207031 92.464844 L 30.230469 91.652344 L 30.230469 92.464844 C 25.933594 92.464844 22.710938 92.488281 20.566406 92.542969 C 19.507813 92.566406 18.714844 92.601563 18.191406 92.636719 C 17.945313 92.652344 17.765625 92.671875 17.65625 92.695313 L 17.648438 92.6875 C 17.972656 92.574219 18.140625 92.332031 18.140625 91.964844 L 18.140625 92.023438 L 18.132813 92.074219 C 17.996094 93.03125 17.648438 93.757813 17.089844 94.273438 C 16.511719 94.792969 15.777344 95.058594 14.894531 95.058594 C 13.914063 95.058594 13.023438 94.4375 12.195313 93.1875 C 11.484375 92.109375 10.929688 90.800781 10.519531 89.265625 C 9.769531 86.292969 9.394531 83.703125 9.394531 81.488281 C 9.394531 76.09375 10.707031 71.964844 13.316406 69.117188 C 15.957031 66.242188 19.191406 64.800781 23.019531 64.808594 C 26.847656 64.800781 30.085938 66.242188 32.742188 69.117188 C 35.375 71.964844 36.691406 75.644531 36.691406 80.136719 C 36.691406 83.429688 36.492188 85.800781 36.089844 87.25 L 35.296875 87.039063 L 35.28125 86.230469 L 47.824219 85.964844 C 48.949219 85.964844 49.863281 86.28125 50.574219 86.894531 C 51.316406 87.539063 51.691406 88.371094 51.691406 89.394531 C 51.691406 90.414063 51.324219 91.257813 50.582031 91.914063 C 49.871094 92.558594 48.957031 92.878906 47.839844 92.878906 Z M 47.863281 91.257813 L 47.839844 92.066406 L 47.839844 91.257813 C 48.539063 91.257813 49.085938 91.082031 49.488281 90.714844 C 49.871094 90.371094 50.058594 89.9375 50.058594 89.394531 C 50.058594 88.867188 49.871094 88.4375 49.496094 88.117188 C 49.09375 87.765625 48.546875 87.585938 47.863281 87.585938 L 34.222656 87.871094 L 34.511719 86.824219 C 34.871094 85.507813 35.058594 83.28125 35.058594 80.136719 C 35.058594 76.058594 33.886719 72.75 31.53125 70.207031 C 29.207031 67.6875 26.367188 66.421875 23.019531 66.421875 C 19.671875 66.421875 16.835938 67.6875 14.527344 70.207031 C 12.195313 72.75 11.027344 76.507813 11.027344 81.488281 C 11.027344 83.566406 11.390625 86.023438 12.101563 88.859375 C 12.460938 90.222656 12.949219 91.371094 13.5625 92.300781 C 14.066406 93.058594 14.503906 93.4375 14.894531 93.4375 C 15.363281 93.4375 15.722656 93.316406 15.988281 93.082031 C 16.261719 92.832031 16.433594 92.421875 16.511719 91.859375 L 17.320313 91.964844 L 16.503906 91.964844 C 16.503906 91.214844 21.082031 90.84375 30.230469 90.84375 L 30.238281 90.84375 Z M 14.707031 81.171875 C 14.707031 83.457031 15.109375 85.359375 15.910156 86.878906 C 17.585938 86.988281 20.074219 87.039063 23.386719 87.039063 C 26.695313 87.039063 29.113281 87 30.648438 86.9375 C 31.171875 84.824219 31.433594 82.5 31.433594 79.957031 C 31.433594 77.414063 30.648438 75.222656 29.078125 73.371094 C 27.507813 71.523438 25.5 70.59375 23.039063 70.59375 C 20.585938 70.59375 18.585938 71.53125 17.03125 73.394531 C 15.484375 75.265625 14.707031 77.859375 14.707031 81.171875 Z M 47.839844 92.066406 L 30.230469 91.652344 C 21.621094 91.652344 17.320313 91.757813 17.320313 91.964844 C 17.21875 92.722656 16.953125 93.292969 16.535156 93.679688 C 16.117188 94.058594 15.570313 94.246094 14.894531 94.246094 C 14.210938 94.246094 13.539063 93.746094 12.878906 92.746094 C 12.214844 91.738281 11.691406 90.515625 11.308594 89.058594 C 10.582031 86.160156 10.214844 83.628906 10.214844 81.488281 C 10.214844 76.300781 11.453125 72.359375 13.921875 69.660156 C 16.398438 66.964844 19.425781 65.617188 23.019531 65.617188 C 26.601563 65.617188 29.648438 66.964844 32.136719 69.660156 C 34.628906 72.359375 35.871094 75.851563 35.871094 80.136719 C 35.871094 83.351563 35.683594 85.652344 35.296875 87.039063 L 47.839844 86.78125 C 48.746094 86.78125 49.480469 87.023438 50.035156 87.5 C 50.597656 87.988281 50.871094 88.621094 50.871094 89.394531 C 50.871094 90.171875 50.597656 90.816406 50.035156 91.316406 C 49.480469 91.816406 48.746094 92.066406 47.839844 92.066406 Z M 38.414063 39.542969 L 38.253906 46.238281 L 37.441406 46.214844 L 38.261719 46.214844 C 38.261719 49.523438 38.289063 51.929688 38.363281 53.445313 L 37.550781 53.480469 L 37.800781 52.707031 C 38.945313 53.085938 40.738281 53.628906 43.183594 54.335938 C 45.652344 55.042969 47.566406 55.628906 48.933594 56.078125 C 50.667969 56.652344 51.53125 57.699219 51.53125 59.238281 C 51.53125 60.121094 51.238281 60.84375 50.652344 61.402344 C 50.078125 61.949219 49.429688 62.222656 48.703125 62.222656 C 48.15625 62.222656 47.695313 62.195313 47.34375 62.136719 C 46.992188 62.078125 46.488281 61.949219 45.824219 61.75 C 45.183594 61.550781 44.574219 61.351563 44.003906 61.136719 L 44.285156 60.378906 L 44.027344 61.144531 C 41.03125 60.144531 38.84375 59.414063 37.449219 58.964844 L 37.699219 58.199219 L 38.519531 58.199219 C 38.519531 59.378906 38.246094 60.328125 37.699219 61.042969 C 37.101563 61.828125 36.304688 62.222656 35.296875 62.222656 C 33.117188 62.222656 32.027344 60.671875 32.027344 57.574219 L 32.027344 56.644531 L 32.84375 56.644531 L 32.570313 57.402344 L 16.550781 51.671875 C 15.210938 51.171875 14.441406 50.886719 14.238281 50.824219 C 14.015625 50.75 13.699219 50.628906 13.289063 50.472656 C 12.835938 50.292969 12.496094 50.136719 12.261719 49.988281 C 12.066406 49.863281 11.835938 49.722656 11.554688 49.550781 C 11.222656 49.34375 10.957031 49.144531 10.761719 48.945313 C 10.570313 48.75 10.382813 48.523438 10.214844 48.273438 L 10.207031 48.257813 L 10.195313 48.25 C 9.839844 47.664063 9.660156 47.050781 9.660156 46.394531 C 9.660156 45.808594 9.726563 45.316406 9.855469 44.921875 C 10 44.488281 10.257813 44.09375 10.625 43.722656 C 10.957031 43.402344 11.300781 43.128906 11.667969 42.90625 C 12.023438 42.6875 12.554688 42.445313 13.261719 42.164063 C 13.921875 41.90625 14.542969 41.671875 15.101563 41.464844 L 15.132813 41.449219 C 20.242188 39.792969 26.046875 37.722656 32.546875 35.242188 L 32.84375 36 L 32.027344 36.023438 L 31.972656 34.144531 L 31.972656 34.128906 C 31.972656 33.027344 32.28125 32.121094 32.898438 31.402344 C 33.546875 30.636719 34.367188 30.257813 35.355469 30.257813 C 37.40625 30.257813 38.492188 31.65625 38.621094 34.457031 L 37.808594 34.492188 L 37.5625 33.722656 C 38.671875 33.378906 40.074219 32.914063 41.773438 32.328125 C 45.542969 30.949219 47.769531 30.257813 48.445313 30.257813 C 49.214844 30.257813 49.921875 30.523438 50.539063 31.050781 C 51.199219 31.609375 51.53125 32.359375 51.53125 33.300781 C 51.53125 34.90625 50.683594 36.058594 48.984375 36.742188 L 48.964844 36.757813 L 48.949219 36.765625 C 47.230469 37.351563 43.53125 38.527344 37.84375 40.300781 L 37.597656 39.523438 Z M 36.777344 39.507813 L 36.792969 38.921875 L 37.355469 38.75 C 43.027344 36.988281 46.710938 35.816406 48.410156 35.230469 L 48.675781 36 L 48.367188 35.25 C 49.386719 34.828125 49.898438 34.179688 49.898438 33.300781 C 49.898438 32.859375 49.761719 32.523438 49.480469 32.285156 C 49.164063 32.015625 48.820313 31.878906 48.445313 31.878906 C 47.960938 31.878906 45.917969 32.535156 42.304688 33.859375 C 40.59375 34.449219 39.175781 34.914063 38.050781 35.265625 L 37.039063 35.578125 L 36.996094 34.527344 C 36.910156 32.765625 36.363281 31.878906 35.355469 31.878906 C 34.871094 31.878906 34.46875 32.070313 34.144531 32.449219 C 33.785156 32.871094 33.605469 33.429688 33.605469 34.128906 L 32.792969 34.128906 L 33.605469 34.109375 L 33.675781 36.550781 L 33.136719 36.75 C 26.609375 39.25 20.773438 41.328125 15.640625 42.992188 L 15.390625 42.222656 L 15.671875 42.980469 C 15.125 43.1875 14.511719 43.414063 13.859375 43.671875 C 13.238281 43.914063 12.792969 44.121094 12.519531 44.285156 C 12.261719 44.445313 12.015625 44.636719 11.785156 44.871094 C 11.597656 45.058594 11.46875 45.242188 11.402344 45.4375 C 11.332031 45.664063 11.289063 45.988281 11.289063 46.394531 C 11.289063 46.742188 11.390625 47.078125 11.589844 47.402344 L 10.890625 47.820313 L 11.574219 47.371094 C 11.683594 47.535156 11.800781 47.679688 11.914063 47.792969 C 12.03125 47.90625 12.195313 48.035156 12.425781 48.171875 C 12.707031 48.351563 12.945313 48.492188 13.136719 48.613281 C 13.28125 48.707031 13.535156 48.820313 13.878906 48.964844 C 14.269531 49.113281 14.5625 49.222656 14.757813 49.285156 C 14.972656 49.359375 15.757813 49.644531 17.101563 50.152344 L 33.65625 56.074219 L 33.65625 57.574219 C 33.65625 59.59375 34.203125 60.601563 35.296875 60.601563 C 35.757813 60.601563 36.125 60.421875 36.398438 60.066406 C 36.722656 59.644531 36.886719 59.023438 36.886719 58.199219 L 36.886719 57.078125 L 37.953125 57.429688 C 39.347656 57.878906 41.550781 58.601563 44.550781 59.609375 L 44.558594 59.617188 L 44.574219 59.617188 C 45.113281 59.824219 45.695313 60.015625 46.300781 60.199219 C 46.898438 60.378906 47.328125 60.492188 47.609375 60.535156 C 47.875 60.578125 48.242188 60.601563 48.703125 60.601563 C 48.992188 60.601563 49.265625 60.480469 49.523438 60.230469 C 49.777344 59.992188 49.898438 59.65625 49.898438 59.238281 C 49.898438 58.488281 49.410156 57.945313 48.414063 57.617188 C 47.070313 57.171875 45.171875 56.59375 42.722656 55.886719 C 40.261719 55.179688 38.449219 54.628906 37.289063 54.242188 L 36.757813 54.074219 L 36.730469 53.515625 C 36.65625 51.980469 36.628906 49.550781 36.628906 46.214844 L 36.628906 46.207031 Z M 32.238281 52.15625 C 32.300781 49.949219 32.339844 47.820313 32.339844 45.773438 C 32.339844 43.730469 32.300781 42.09375 32.238281 40.863281 L 33.050781 40.820313 L 33.316406 41.585938 C 28.054688 43.402344 24.113281 44.773438 21.484375 45.695313 C 20.175781 46.15625 19.191406 46.507813 18.535156 46.742188 C 18.210938 46.863281 17.972656 46.949219 17.816406 47.015625 C 17.742188 47.042969 17.691406 47.066406 17.664063 47.078125 C 17.945313 46.949219 18.082031 46.714844 18.082031 46.371094 C 18.082031 46.113281 17.996094 45.914063 17.808594 45.78125 L 17.84375 45.792969 C 17.945313 45.851563 18.109375 45.929688 18.332031 46.023438 C 18.816406 46.230469 19.542969 46.515625 20.515625 46.886719 C 22.472656 47.621094 25.421875 48.6875 29.351563 50.066406 L 33.316406 51.414063 L 33.050781 52.179688 Z M 33.835938 53.300781 L 28.804688 51.59375 C 20.570313 48.699219 16.457031 46.957031 16.457031 46.371094 C 16.457031 45.914063 21.894531 43.816406 32.785156 40.058594 L 33.808594 39.699219 L 33.863281 40.777344 C 33.9375 42.035156 33.972656 43.699219 33.972656 45.773438 C 33.972656 47.84375 33.9375 49.988281 33.863281 52.207031 Z M 37.597656 39.523438 L 37.441406 46.214844 C 37.441406 49.535156 37.476563 51.957031 37.550781 53.480469 C 38.691406 53.859375 40.5 54.402344 42.953125 55.109375 C 45.40625 55.824219 47.320313 56.402344 48.675781 56.851563 C 50.035156 57.300781 50.71875 58.09375 50.71875 59.238281 C 50.71875 59.894531 50.503906 60.421875 50.085938 60.816406 C 49.667969 61.214844 49.207031 61.414063 48.703125 61.414063 C 48.199219 61.414063 47.789063 61.386719 47.472656 61.335938 C 47.164063 61.285156 46.6875 61.164063 46.0625 60.972656 C 45.4375 60.78125 44.847656 60.585938 44.285156 60.378906 C 41.292969 59.371094 39.097656 58.644531 37.699219 58.199219 C 37.699219 59.199219 37.484375 59.988281 37.050781 60.558594 C 36.613281 61.128906 36.03125 61.414063 35.296875 61.414063 C 33.664063 61.414063 32.84375 60.136719 32.84375 57.574219 L 32.84375 56.644531 C 23.507813 53.324219 18.167969 51.40625 16.824219 50.90625 C 15.484375 50.40625 14.707031 50.121094 14.496094 50.050781 C 14.289063 49.988281 13.988281 49.871094 13.582031 49.714844 C 13.179688 49.558594 12.886719 49.421875 12.699219 49.300781 C 12.503906 49.179688 12.265625 49.035156 11.992188 48.859375 C 11.710938 48.6875 11.496094 48.523438 11.339844 48.363281 C 11.179688 48.214844 11.027344 48.03125 10.890625 47.820313 C 10.613281 47.371094 10.476563 46.902344 10.476563 46.394531 C 10.476563 45.894531 10.523438 45.488281 10.632813 45.179688 C 10.734375 44.863281 10.929688 44.570313 11.210938 44.292969 C 11.484375 44.023438 11.785156 43.785156 12.09375 43.59375 C 12.410156 43.40625 12.894531 43.179688 13.554688 42.921875 C 14.21875 42.664063 14.828125 42.429688 15.390625 42.222656 C 20.507813 40.566406 26.328125 38.488281 32.84375 36 L 32.792969 34.128906 C 32.792969 33.230469 33.035156 32.492188 33.519531 31.921875 C 34.007813 31.359375 34.621094 31.070313 35.355469 31.070313 C 36.886719 31.070313 37.699219 32.207031 37.808594 34.492188 C 38.921875 34.152344 40.335938 33.679688 42.039063 33.09375 C 45.730469 31.742188 47.867188 31.070313 48.445313 31.070313 C 49.019531 31.070313 49.539063 31.265625 50.011719 31.664063 C 50.480469 32.066406 50.71875 32.609375 50.71875 33.300781 C 50.71875 34.542969 50.035156 35.445313 48.675781 36 C 46.96875 36.585938 43.277344 37.757813 37.597656 39.523438 Z M 33.050781 52.179688 C 33.121094 49.964844 33.160156 47.828125 33.160156 45.773438 C 33.160156 43.714844 33.121094 42.066406 33.050781 40.820313 C 22.53125 44.449219 17.269531 46.300781 17.269531 46.371094 C 17.269531 46.578125 21.207031 48.066406 29.078125 50.828125 Z M 9.871094 23.007813 L 10.179688 12.6875 L 11 12.707031 L 10.179688 12.734375 L 9.871094 2.707031 L 9.871094 2.691406 C 9.871094 1.578125 10.144531 0.664063 10.683594 -0.0507813 C 11.289063 -0.835938 12.101563 -1.230469 13.136719 -1.230469 C 14.175781 -1.230469 14.996094 -0.835938 15.59375 -0.0507813 C 16.140625 0.664063 16.414063 1.578125 16.414063 2.691406 L 16.414063 2.714844 L 16.09375 10.199219 L 15.28125 10.164063 L 15.320313 9.355469 C 18.6875 9.492188 23.832031 9.5625 30.753906 9.5625 L 47.667969 9.25 C 48.789063 9.25 49.703125 9.558594 50.417969 10.179688 C 51.15625 10.820313 51.53125 11.65625 51.53125 12.679688 C 51.53125 13.699219 51.164063 14.535156 50.429688 15.199219 C 49.710938 15.84375 48.796875 16.164063 47.683594 16.164063 L 30.734375 15.851563 C 24.695313 15.851563 19.558594 15.9375 15.320313 16.105469 L 15.28125 15.300781 L 16.09375 15.273438 L 16.414063 23.015625 L 16.414063 23.027344 C 16.414063 24.144531 16.140625 25.058594 15.59375 25.773438 C 14.996094 26.558594 14.175781 26.949219 13.136719 26.949219 C 12.101563 26.949219 11.289063 26.558594 10.683594 25.773438 C 10.144531 25.058594 9.871094 24.144531 9.871094 23.027344 Z M 11.496094 23.050781 L 10.683594 23.027344 L 11.503906 23.027344 C 11.503906 23.777344 11.664063 24.371094 11.984375 24.792969 C 12.261719 25.152344 12.640625 25.328125 13.136719 25.328125 C 13.632813 25.328125 14.023438 25.152344 14.289063 24.792969 C 14.621094 24.371094 14.777344 23.777344 14.777344 23.027344 L 15.597656 23.027344 L 14.777344 23.066406 L 14.433594 14.523438 L 15.246094 14.492188 C 19.515625 14.316406 24.679688 14.230469 30.769531 14.230469 L 47.683594 14.542969 C 48.378906 14.542969 48.925781 14.363281 49.328125 14 C 49.710938 13.65625 49.898438 13.222656 49.898438 12.679688 C 49.898438 12.148438 49.710938 11.722656 49.34375 11.398438 C 48.941406 11.050781 48.394531 10.871094 47.695313 10.871094 L 30.753906 11.1875 C 23.808594 11.1875 18.644531 11.113281 15.246094 10.980469 L 14.433594 10.941406 L 14.777344 2.664063 L 15.597656 2.691406 L 14.777344 2.691406 C 14.777344 1.941406 14.621094 1.355469 14.289063 0.929688 C 14.023438 0.570313 13.632813 0.394531 13.136719 0.394531 C 12.640625 0.394531 12.261719 0.570313 11.984375 0.929688 C 11.664063 1.355469 11.503906 1.941406 11.503906 2.691406 L 10.683594 2.691406 L 11.496094 2.671875 L 11.8125 12.707031 Z M 10.683594 23.027344 L 11 12.707031 L 10.683594 2.691406 C 10.683594 1.765625 10.898438 1.007813 11.339844 0.441406 C 11.769531 -0.128906 12.375 -0.414063 13.136719 -0.414063 C 13.90625 -0.414063 14.503906 -0.128906 14.945313 0.441406 C 15.375 1.007813 15.597656 1.765625 15.597656 2.691406 L 15.28125 10.164063 C 18.664063 10.308594 23.816406 10.371094 30.753906 10.371094 L 47.683594 10.066406 C 48.589844 10.066406 49.324219 10.308594 49.875 10.785156 C 50.4375 11.273438 50.71875 11.898438 50.71875 12.679688 C 50.71875 13.457031 50.4375 14.101563 49.875 14.601563 C 49.324219 15.101563 48.589844 15.351563 47.683594 15.351563 L 30.753906 15.042969 C 24.6875 15.042969 19.535156 15.128906 15.28125 15.300781 L 15.597656 23.027344 C 15.597656 23.964844 15.375 24.714844 14.945313 25.285156 C 14.503906 25.859375 13.90625 26.144531 13.136719 26.144531 C 12.375 26.144531 11.769531 25.859375 11.339844 25.285156 C 10.898438 24.714844 10.683594 23.964844 10.683594 23.027344 Z M 10.683594 23.027344 "
     id="path2" />
</svg>
